<?xml version="1.0" encoding="UTF-8" standalone="no"?>
<svg
   width="64"
   height="64"
   shape-rendering="geometricPrecision"
   text-rendering="geometricPrecision"
   image-rendering="optimizeQuality"
   fill-rule="evenodd"
   clip-rule="evenodd"
   viewBox="0 0 640 640"
   version="1.1"
   id="svg4"
   sodipodi:docname="github-icon.svg"
   inkscape:version="1.2.1 (9c6d41e410, 2022-07-14)"
   xmlns:inkscape="http://www.inkscape.org/namespaces/inkscape"
   xmlns:sodipodi="http://sodipodi.sourceforge.net/DTD/sodipodi-0.dtd"
   xmlns="http://www.w3.org/2000/svg"
   xmlns:svg="http://www.w3.org/2000/svg">
  <defs
     id="defs8" />
  <sodipodi:namedview
     id="namedview6"
     pagecolor="#505050"
     bordercolor="#ffffff"
     borderopacity="1"
     inkscape:showpageshadow="0"
     inkscape:pageopacity="0"
     inkscape:pagecheckerboard="1"
     inkscape:deskcolor="#505050"
     showgrid="false"
     inkscape:zoom="12.5625"
     inkscape:cx="32"
     inkscape:cy="46.208955"
     inkscape:window-width="1920"
     inkscape:window-height="991"
     inkscape:window-x="-9"
     inkscape:window-y="-9"
     inkscape:window-maximized="1"
     inkscape:current-layer="svg4" />
  <path
     d="m 319.98933,62.293367 c -163.62697,0 -296.322281,132.673093 -296.322281,296.321353 0,130.93492 84.897661,241.9729 202.642041,281.17413 14.82037,2.74473 20.26735,-6.44246 20.26735,-14.27402 0,-7.06573 -0.29541,-30.4066 -0.41579,-55.14767 -82.44736,17.92725 -99.82732,-34.97845 -99.82732,-34.97845 -13.47576,-34.25706 -32.90134,-43.36747 -32.90134,-43.36747 -26.884847,-18.40878 2.04563,-18.0041 2.04563,-18.0041 29.75002,2.07896 45.41309,30.51678 45.41309,30.51678 26.44776,45.30382 69.34479,32.18922 86.2432,24.63086 2.66885,-19.15147 10.32537,-32.23274 18.81254,-39.63737 -65.82305,-7.47038 -135.01412,-32.8893 -135.01412,-146.44426 0,-32.34293 11.59404,-58.78976 30.52697,-79.52848 -3.08372,-7.48056 -13.23406,-37.60285 2.85499,-78.41166 0,0 24.88274,-7.97322 81.51854,30.37417 23.62518,-6.55174 48.96724,-9.85494 74.13521,-9.96421 25.18834,0.10927 50.57484,3.40135 74.23336,9.96421 56.55893,-38.32516 81.41946,-30.37417 81.41946,-30.37417 16.11127,40.81992 6.00538,70.96351 2.92073,78.41259 18.99867,20.73779 30.49456,47.18462 30.49456,79.52755 0,113.81703 -69.3448,138.84146 -135.31046,146.18126 10.63189,9.18727 20.12566,27.22379 20.12566,54.85225 0,39.62717 -0.33893,71.56452 -0.33893,81.31021 0,7.88615 5.33771,17.10671 20.36551,14.21844 117.6777,-39.22161 202.46702,-150.27254 202.46702,-281.12967 0,-163.62697 -132.67309,-296.32228 -296.33339,-296.32228 l -0.0213,0.09909 z"
     id="path2"
     style="stroke-width:0.926042" />
</svg>
